<?xml version="1.0" encoding="UTF-8"?>
<!DOCTYPE svg PUBLIC "-//W3C//DTD SVG 1.1//EN" "http://www.w3.org/Graphics/SVG/1.1/DTD/svg11.dtd">
<!-- Creator: CorelDRAW -->
<svg xmlns="http://www.w3.org/2000/svg" xml:space="preserve" width="8.5in" height="11in" version="1.1" style="shape-rendering:geometricPrecision; text-rendering:geometricPrecision; image-rendering:optimizeQuality; fill-rule:evenodd; clip-rule:evenodd"
viewBox="0 0 8500 11000"
 xmlns:xlink="http://www.w3.org/1999/xlink"
 xmlns:xodm="http://www.corel.com/coreldraw/odm/2003">
 <defs>
  <style type="text/css">
   <![CDATA[
    .fil1 {fill:black}
    .fil0 {fill:url(#id0)}
   ]]>
  </style>
  <linearGradient id="id0" gradientUnits="userSpaceOnUse" x1="8571" y1="9756" x2="-111" y2="-19725">
   <stop offset="0" style="stop-opacity:1; stop-color:#FFBC5E"/>
   <stop offset="1" style="stop-opacity:1; stop-color:white"/>
  </linearGradient>
 </defs>
 <g id="Layer_x0020_1">
  <metadata id="CorelCorpID_0Corel-Layer"/>
  <g id="_2951903310368">
   <path class="fil0" d="M4789 3197c73,-85 293,-348 359,-390 64,16 169,131 229,185 268,238 272,158 -9,478l-1108 1302c-55,66 -410,510 -456,513 -37,2 -804,-636 -939,-745 -63,-51 -262,-205 -299,-253 9,-59 295,-423 347,-457 65,16 157,101 212,143l592 431 1072 -1207zm-2372 -2562c-368,0 -303,-73 -354,244l-157 807c-31,31 -289,93 -355,112l-421 134c-3,1 -7,3 -11,4 -10,3 -8,4 -33,11 -12,4 -36,9 -47,11l-223 69c-40,13 -44,7 -79,23l190 862c8,40 7,45 17,85l55 239c18,73 3,54 -36,122l-500 756c-28,42 -64,79 -77,127 59,88 670,583 786,689 116,106 77,503 76,669l28 717c4,86 17,73 103,72l851 70c245,25 193,71 323,232l254 316c30,37 43,64 74,101 44,53 212,303 266,303l136 -54c219,-106 461,-181 684,-280 30,-13 25,-10 64,-24 206,-72 89,-92 409,58l376 179c100,41 319,179 390,179 47,0 142,-161 166,-199 93,-142 277,-366 390,-515 77,-103 283,-105 428,-127l628 -102c87,-19 254,-35 315,-64 0,-87 -15,-143 -15,-248 1,-218 11,-440 0,-658l-4 -193c24,-107 202,-209 278,-292l344 -343c248,-229 267,-157 172,-354 -22,-45 -32,-75 -58,-117l-253 -478c-13,-30 -14,-33 -28,-60 -11,-21 -18,-33 -31,-56 -25,-46 -43,-81 -69,-122 -39,-61 -8,-126 4,-202 8,-49 8,-22 20,-68 36,-144 43,-311 84,-456 42,-148 49,-321 84,-471l-163 -85c-34,-18 -53,-29 -87,-44l-171 -77c-31,-14 -63,-28 -90,-41l-519 -255c-48,-55 -53,-224 -71,-309l-125 -635c-57,-199 -20,-146 -248,-146l-774 0c-111,0 -158,18 -228,-35l-504 -387c-29,-23 -40,-38 -70,-61l-136 -112c-41,-35 -140,-117 -193,-129 -64,-14 -217,130 -270,168 -49,35 -83,70 -141,107 -68,42 -92,69 -148,115l-302 209c-82,36 -371,33 -487,20 -152,-17 -339,-12 -513,-12z"/>
   <path class="fil1" d="M3718 4404l-592 -431c-55,-42 -147,-126 -212,-143 -52,34 -338,398 -347,457 37,49 236,203 299,253 135,109 902,747 939,745 47,-2 402,-447 456,-513l1108 -1302c281,-320 276,-241 9,-478 -60,-53 -164,-169 -229,-185 -66,42 -286,305 -359,390l-1072 1207z"/>
  </g>
 </g>
</svg>
